<svg xmlns="http://www.w3.org/2000/svg" width="1200" height="500" viewBox="0 0 1200 500">
<defs>
 <linearGradient id="b" x1="0" y1="0" x2="1" y2="1"><stop stop-color="#070b18"/><stop offset="1" stop-color="#0b1520"/></linearGradient>
 <linearGradient id="p" x1="0" y1="0" x2="1" y2="0"><stop stop-color="#55d8ff"/><stop offset=".5" stop-color="#8d7cff"/><stop offset="1" stop-color="#50efb5"/></linearGradient>
 <filter id="s"><feDropShadow dx="0" dy="8" stdDeviation="10" flood-opacity=".35"/></filter>
</defs>
<rect width="1200" height="500" rx="28" fill="url(#b)"/>
<text x="60" y="62" fill="#f6f8fc" font-family="Arial" font-size="28" font-weight="700">How ALTAIR thinks</text>
<text x="60" y="91" fill="#788ca9" font-family="Arial" font-size="15">A product flow from learner context to structured, usable output</text>
<path d="M245 247 H275 M465 247 H495 M685 247 H715 M905 247 H935" fill="none" stroke="#23344f" stroke-width="5" stroke-linecap="round"/>
<path d="M245 247 H275 M465 247 H495 M685 247 H715 M905 247 H935" fill="none" stroke="url(#p)" stroke-width="5" stroke-linecap="round" stroke-dasharray="26 70"><animate attributeName="stroke-dashoffset" values="96;0" dur="2.2s" repeatCount="indefinite"/></path>
<g filter="url(#s)" font-family="Arial">
 <g><rect x="55" y="172" width="190" height="150" rx="24" fill="#111a2b" stroke="#253958"/><text x="150" y="215" text-anchor="middle" fill="#64dcff" font-size="12" font-weight="700">01 · INPUT</text><text x="150" y="250" text-anchor="middle" fill="#f4f7fc" font-size="18" font-weight="700">Learner Context</text><text x="150" y="279" text-anchor="middle" fill="#8194b0" font-size="13">goals · knowledge</text><text x="150" y="299" text-anchor="middle" fill="#8194b0" font-size="13">preferences · time</text></g>
 <g><rect x="275" y="172" width="190" height="150" rx="24" fill="#111a2b" stroke="#253958"/><text x="370" y="215" text-anchor="middle" fill="#70c7ff" font-size="12" font-weight="700">02 · EXPERIENCE</text><text x="370" y="250" text-anchor="middle" fill="#f4f7fc" font-size="18" font-weight="700">React Interface</text><text x="370" y="279" text-anchor="middle" fill="#8194b0" font-size="13">guided questionnaire</text><text x="370" y="299" text-anchor="middle" fill="#8194b0" font-size="13">roadmap UI</text></g>
 <g><rect x="495" y="172" width="190" height="150" rx="24" fill="#111a2b" stroke="#34345e"/><text x="590" y="215" text-anchor="middle" fill="#9a8cff" font-size="12" font-weight="700">03 · ORCHESTRATE</text><text x="590" y="250" text-anchor="middle" fill="#f4f7fc" font-size="18" font-weight="700">Node + Express</text><text x="590" y="279" text-anchor="middle" fill="#8194b0" font-size="13">context preparation</text><text x="590" y="299" text-anchor="middle" fill="#8194b0" font-size="13">prompt construction</text></g>
 <g><rect x="715" y="172" width="190" height="150" rx="24" fill="#111a2b" stroke="#3c3763"/><text x="810" y="215" text-anchor="middle" fill="#a589ff" font-size="12" font-weight="700">04 · GENERATE</text><text x="810" y="250" text-anchor="middle" fill="#f4f7fc" font-size="18" font-weight="700">Google Gemini</text><text x="810" y="279" text-anchor="middle" fill="#8194b0" font-size="13">personalised roadmap</text><text x="810" y="299" text-anchor="middle" fill="#8194b0" font-size="13">generation</text></g>
 <g><rect x="935" y="172" width="210" height="150" rx="24" fill="#101d24" stroke="#2b5949"/><text x="1040" y="215" text-anchor="middle" fill="#57efb7" font-size="12" font-weight="700">05 · VALIDATE</text><text x="1040" y="250" text-anchor="middle" fill="#f4f7fc" font-size="18" font-weight="700">Roadmap Output</text><text x="1040" y="279" text-anchor="middle" fill="#8194b0" font-size="13">structured JSON</text><text x="1040" y="299" text-anchor="middle" fill="#8194b0" font-size="13">schema validation</text></g>
</g>
<text x="600" y="405" text-anchor="middle" fill="#8093ae" font-family="Arial" font-size="14">SKILLS  ·  EDUCATION  ·  SELF-STUDY  ·  PROJECTS  ·  CERTIFICATIONS  ·  MILESTONES</text>
</svg>